<mxfile host="app.diagrams.net" agent="Mozilla/5.0 (Macintosh; Intel Mac OS X 10_15_7) AppleWebKit/537.36 (KHTML, like Gecko) Chrome/136.0.0.0 Safari/537.36" version="27.1.4">
  <diagram name="Page-1" id="iIl7pwh-zkUzLiBfvwL1">
    <mxGraphModel dx="1234" dy="721" grid="1" gridSize="10" guides="1" tooltips="1" connect="1" arrows="1" fold="1" page="1" pageScale="1" pageWidth="850" pageHeight="1100" math="0" shadow="0">
      <root>
        <mxCell id="0" />
        <mxCell id="1" parent="0" />
        <mxCell id="IJRxwQ_sMtEVjIKPLX23-1" value="" style="rounded=1;whiteSpace=wrap;html=1;strokeColor=#0070F2;fillColor=#EBF8FF;arcSize=24;absoluteArcSize=1;imageWidth=64;imageHeight=64;strokeWidth=1.5;" vertex="1" parent="1">
          <mxGeometry x="617.5" y="360" width="958" height="365" as="geometry" />
        </mxCell>
        <mxCell id="IJRxwQ_sMtEVjIKPLX23-2" value="" style="rounded=1;whiteSpace=wrap;html=1;strokeColor=#0070F2;strokeWidth=1.5;arcSize=24;fillColor=#FFFFFF;perimeterSpacing=0;absoluteArcSize=1;" vertex="1" parent="1">
          <mxGeometry x="1275" y="414" width="259" height="280" as="geometry" />
        </mxCell>
        <mxCell id="IJRxwQ_sMtEVjIKPLX23-3" value="&lt;div&gt;&lt;font face=&quot;arial&quot;&gt;&lt;span style=&quot;font-size: 16px;&quot;&gt;&lt;b&gt;FRoSTA Azure Instance&lt;/b&gt;&lt;/span&gt;&lt;/font&gt;&lt;/div&gt;" style="text;html=1;align=left;verticalAlign=middle;resizable=0;points=[];autosize=1;strokeColor=none;fillColor=none;fontSize=12;fontColor=#1d2d3e;fontFamily=Helvetica;" vertex="1" parent="1">
          <mxGeometry x="1322.5" y="422" width="197" height="31" as="geometry" />
        </mxCell>
        <mxCell id="IJRxwQ_sMtEVjIKPLX23-4" value="" style="rounded=1;whiteSpace=wrap;html=1;strokeColor=#0070F2;fillColor=#EBF8FF;arcSize=24;absoluteArcSize=1;imageWidth=64;imageHeight=64;strokeWidth=1.5;" vertex="1" parent="1">
          <mxGeometry x="1322.5" y="477" width="160" height="160" as="geometry" />
        </mxCell>
        <mxCell id="IJRxwQ_sMtEVjIKPLX23-5" value="Azure Entra ID/AAD" style="text;strokeColor=none;fillColor=none;html=1;align=center;verticalAlign=middle;whiteSpace=wrap;rounded=0;fontSize=16;" vertex="1" parent="1">
          <mxGeometry x="1316.5" y="486" width="176" height="30" as="geometry" />
        </mxCell>
        <mxCell id="IJRxwQ_sMtEVjIKPLX23-6" value="" style="shape=image;verticalLabelPosition=bottom;labelBackgroundColor=default;verticalAlign=top;aspect=fixed;imageAspect=0;image=data:image/svg+xml,PHN2ZyB4bWxucz0iaHR0cDovL3d3dy53My5vcmcvMjAwMC9zdmciIHZpZXdCb3g9IjAgMCA5NiA5NiIgaGVpZ2h0PSIxNTAiIHdpZHRoPSIxNTAiPiYjeGE7ICAgIDxkZWZzPiYjeGE7ICAgICAgICA8bGluZWFyR3JhZGllbnQgZ3JhZGllbnRVbml0cz0idXNlclNwYWNlT25Vc2UiIGdyYWRpZW50VHJhbnNmb3JtPSJtYXRyaXgoMSAwIDAgLTEgMTA3NSAxNTgpIiB5Mj0iNjUuNDI2IiB5MT0iMTQ1LjMxMiIgeDI9Ii0xMDU5LjIxMyIgeDE9Ii0xMDMyLjE3MiIgaWQ9ImUzOTljMTlmLWI2OGYtNDI5ZC1iMTc2LTE4YzIxMTdmZjczYyI+JiN4YTsgICAgICAgICAgICA8c3RvcCBzdG9wLWNvbG9yPSIjMTE0YThiIiBvZmZzZXQ9IjAiLz4mI3hhOyAgICAgICAgICAgIDxzdG9wIHN0b3AtY29sb3I9IiMwNjY5YmMiIG9mZnNldD0iMSIvPiYjeGE7ICAgICAgICA8L2xpbmVhckdyYWRpZW50PiYjeGE7ICAgICAgICA8bGluZWFyR3JhZGllbnQgZ3JhZGllbnRVbml0cz0idXNlclNwYWNlT25Vc2UiIGdyYWRpZW50VHJhbnNmb3JtPSJtYXRyaXgoMSAwIDAgLTEgMTA3NSAxNTgpIiB5Mj0iMTA1Ljk2OCIgeTE9IjEwOC4wODMiIHgyPSItMTAyOS45OCIgeDE9Ii0xMDIzLjcyNSIgaWQ9ImFjMmE2ZmMyLWNhNDgtNDMyNy05YTNjLWQ0ZGNjMzI1NmUxNSI+JiN4YTsgICAgICAgICAgICA8c3RvcCBzdG9wLW9wYWNpdHk9Ii4zIiBvZmZzZXQ9IjAiLz4mI3hhOyAgICAgICAgICAgIDxzdG9wIHN0b3Atb3BhY2l0eT0iLjIiIG9mZnNldD0iLjA3MSIvPiYjeGE7ICAgICAgICAgICAgPHN0b3Agc3RvcC1vcGFjaXR5PSIuMSIgb2Zmc2V0PSIuMzIxIi8+JiN4YTsgICAgICAgICAgICA8c3RvcCBzdG9wLW9wYWNpdHk9Ii4wNSIgb2Zmc2V0PSIuNjIzIi8+JiN4YTsgICAgICAgICAgICA8c3RvcCBzdG9wLW9wYWNpdHk9IjAiIG9mZnNldD0iMSIvPiYjeGE7ICAgICAgICA8L2xpbmVhckdyYWRpZW50PiYjeGE7ICAgICAgICA8bGluZWFyR3JhZGllbnQgZ3JhZGllbnRVbml0cz0idXNlclNwYWNlT25Vc2UiIGdyYWRpZW50VHJhbnNmb3JtPSJtYXRyaXgoMSAwIDAgLTEgMTA3NSAxNTgpIiB5Mj0iNjguNTYxIiB5MT0iMTQ3LjY0MiIgeDI9Ii05OTcuNDgyIiB4MT0iLTEwMjcuMTY1IiBpZD0iYTdmZWU5NzAtYTc4NC00YmIxLWFmOGQtNjNkMThlNWY3ZGI5Ij4mI3hhOyAgICAgICAgICAgIDxzdG9wIHN0b3AtY29sb3I9IiMzY2NiZjQiIG9mZnNldD0iMCIvPiYjeGE7ICAgICAgICAgICAgPHN0b3Agc3RvcC1jb2xvcj0iIzI4OTJkZiIgb2Zmc2V0PSIxIi8+JiN4YTsgICAgICAgIDwvbGluZWFyR3JhZGllbnQ+JiN4YTsgICAgPC9kZWZzPiYjeGE7ICAgIDxwYXRoIGQ9Ik0zMy4zMzggNi41NDRoMjYuMDM4bC0yNy4wMyA4MC4wODdhNC4xNTIgNC4xNTIgMCAwIDEtMy45MzMgMi44MjRIOC4xNDlhNC4xNDUgNC4xNDUgMCAwIDEtMy45MjgtNS40N0wyOS40MDQgOS4zNjhhNC4xNTIgNC4xNTIgMCAwIDEgMy45MzQtMi44MjV6IiBmaWxsPSJ1cmwoI2UzOTljMTlmLWI2OGYtNDI5ZC1iMTc2LTE4YzIxMTdmZjczYykiLz4mI3hhOyAgICA8cGF0aCBkPSJNNzEuMTc1IDYwLjI2MWgtNDEuMjlhMS45MTEgMS45MTEgMCAwIDAtMS4zMDUgMy4zMDlsMjYuNTMyIDI0Ljc2NGE0LjE3MSA0LjE3MSAwIDAgMCAyLjg0NiAxLjEyMWgyMy4zOHoiIGZpbGw9IiMwMDc4ZDQiLz4mI3hhOyAgICA8cGF0aCBkPSJNMzMuMzM4IDYuNTQ0YTQuMTE4IDQuMTE4IDAgMCAwLTMuOTQzIDIuODc5TDQuMjUyIDgzLjkxN2E0LjE0IDQuMTQgMCAwIDAgMy45MDggNS41MzhoMjAuNzg3YTQuNDQzIDQuNDQzIDAgMCAwIDMuNDEtMi45bDUuMDE0LTE0Ljc3NyAxNy45MSAxNi43MDVhNC4yMzcgNC4yMzcgMCAwIDAgMi42NjYuOTcySDgxLjI0TDcxLjAyNCA2MC4yNjFsLTI5Ljc4MS4wMDdMNTkuNDcgNi41NDR6IiBmaWxsPSJ1cmwoI2FjMmE2ZmMyLWNhNDgtNDMyNy05YTNjLWQ0ZGNjMzI1NmUxNSkiLz4mI3hhOyAgICA8cGF0aCBkPSJNNjYuNTk1IDkuMzY0YTQuMTQ1IDQuMTQ1IDAgMCAwLTMuOTI4LTIuODJIMzMuNjQ4YTQuMTQ2IDQuMTQ2IDAgMCAxIDMuOTI4IDIuODJsMjUuMTg0IDc0LjYyYTQuMTQ2IDQuMTQ2IDAgMCAxLTMuOTI4IDUuNDcyaDI5LjAyYTQuMTQ2IDQuMTQ2IDAgMCAwIDMuOTI3LTUuNDcyeiIgZmlsbD0idXJsKCNhN2ZlZTk3MC1hNzg0LTRiYjEtYWY4ZC02M2QxOGU1ZjdkYjkpIi8+JiN4YTs8L3N2Zz4=;" vertex="1" parent="1">
          <mxGeometry x="645.5" y="370" width="34" height="34" as="geometry" />
        </mxCell>
        <mxCell id="IJRxwQ_sMtEVjIKPLX23-7" value="Micrososft Azure" style="text;strokeColor=none;fillColor=none;html=1;align=center;verticalAlign=middle;whiteSpace=wrap;rounded=0;fontSize=18;fontColor=#002a86;fontStyle=0;fontFamily=Tahoma;" vertex="1" parent="1">
          <mxGeometry x="661.5" y="374" width="179" height="30" as="geometry" />
        </mxCell>
        <mxCell id="IJRxwQ_sMtEVjIKPLX23-8" value="PROD" style="rounded=1;whiteSpace=wrap;html=1;strokeColor=#0070F2;strokeWidth=1.5;arcSize=16;fillColor=#ffffff;perimeterSpacing=0;absoluteArcSize=1;" vertex="1" parent="1">
          <mxGeometry x="1343.5" y="546.9999999999998" width="111" height="20" as="geometry" />
        </mxCell>
        <mxCell id="IJRxwQ_sMtEVjIKPLX23-9" value="" style="rounded=1;whiteSpace=wrap;html=1;strokeColor=#0070F2;strokeWidth=1.5;arcSize=24;fillColor=#FFFFFF;perimeterSpacing=0;absoluteArcSize=1;" vertex="1" parent="1">
          <mxGeometry x="636.05" y="414.13" width="423.45" height="272.87" as="geometry" />
        </mxCell>
        <mxCell id="IJRxwQ_sMtEVjIKPLX23-10" value="&lt;font face=&quot;arial&quot;&gt;&lt;span style=&quot;font-size: 16px;&quot;&gt;&lt;b&gt;RISE with SAP&lt;/b&gt;&lt;/span&gt;&lt;/font&gt;" style="text;html=1;align=left;verticalAlign=middle;resizable=0;points=[];autosize=1;strokeColor=none;fillColor=none;fontSize=12;fontColor=#1d2d3e;fontFamily=Helvetica;" vertex="1" parent="1">
          <mxGeometry x="647.5" y="424.14" width="129" height="31" as="geometry" />
        </mxCell>
        <mxCell id="IJRxwQ_sMtEVjIKPLX23-11" value="" style="rounded=1;whiteSpace=wrap;html=1;strokeColor=#0070F2;fillColor=#EBF8FF;arcSize=24;absoluteArcSize=1;imageWidth=64;imageHeight=64;strokeWidth=1.5;" vertex="1" parent="1">
          <mxGeometry x="657.5" y="477" width="160" height="181.5" as="geometry" />
        </mxCell>
        <mxCell id="IJRxwQ_sMtEVjIKPLX23-12" value="XS5" style="rounded=1;whiteSpace=wrap;html=1;strokeColor=#0070F2;strokeWidth=1.5;arcSize=16;fillColor=#ffffff;perimeterSpacing=0;absoluteArcSize=1;" vertex="1" parent="1">
          <mxGeometry x="678.5" y="566.9999999999998" width="111" height="20" as="geometry" />
        </mxCell>
        <mxCell id="IJRxwQ_sMtEVjIKPLX23-13" value="ES4" style="rounded=1;whiteSpace=wrap;html=1;strokeColor=#0070F2;strokeWidth=1.5;arcSize=16;fillColor=#ffffff;perimeterSpacing=0;absoluteArcSize=1;" vertex="1" parent="1">
          <mxGeometry x="678.5" y="536.9999999999998" width="111" height="20" as="geometry" />
        </mxCell>
        <mxCell id="IJRxwQ_sMtEVjIKPLX23-14" value="S/4 HANA" style="text;strokeColor=none;fillColor=none;html=1;align=center;verticalAlign=middle;whiteSpace=wrap;rounded=0;fontSize=16;" vertex="1" parent="1">
          <mxGeometry x="651.5" y="486" width="176" height="30" as="geometry" />
        </mxCell>
        <mxCell id="IJRxwQ_sMtEVjIKPLX23-15" value="PR3" style="rounded=1;whiteSpace=wrap;html=1;strokeColor=#0070F2;strokeWidth=1.5;arcSize=16;fillColor=#ffffff;perimeterSpacing=0;absoluteArcSize=1;" vertex="1" parent="1">
          <mxGeometry x="678.5" y="596.9999999999998" width="111" height="20" as="geometry" />
        </mxCell>
        <mxCell id="IJRxwQ_sMtEVjIKPLX23-16" value="SS4" style="rounded=1;whiteSpace=wrap;html=1;strokeColor=#0070F2;strokeWidth=1.5;arcSize=16;fillColor=#ffffff;perimeterSpacing=0;absoluteArcSize=1;" vertex="1" parent="1">
          <mxGeometry x="678.5" y="626.4999999999998" width="111" height="20" as="geometry" />
        </mxCell>
        <mxCell id="IJRxwQ_sMtEVjIKPLX23-17" value="" style="rounded=1;whiteSpace=wrap;html=1;strokeColor=#0070F2;fillColor=#EBF8FF;arcSize=24;absoluteArcSize=1;imageWidth=64;imageHeight=64;strokeWidth=1.5;" vertex="1" parent="1">
          <mxGeometry x="863.5" y="485.5" width="160" height="134" as="geometry" />
        </mxCell>
        <mxCell id="IJRxwQ_sMtEVjIKPLX23-18" value="PHR" style="rounded=1;whiteSpace=wrap;html=1;strokeColor=#0070F2;strokeWidth=1.5;arcSize=16;fillColor=#ffffff;perimeterSpacing=0;absoluteArcSize=1;" vertex="1" parent="1">
          <mxGeometry x="885.5" y="569.9999999999998" width="111" height="20" as="geometry" />
        </mxCell>
        <mxCell id="IJRxwQ_sMtEVjIKPLX23-19" value="EHR" style="rounded=1;whiteSpace=wrap;html=1;strokeColor=#0070F2;strokeWidth=1.5;arcSize=16;fillColor=#ffffff;perimeterSpacing=0;absoluteArcSize=1;" vertex="1" parent="1">
          <mxGeometry x="885.5" y="539.9999999999998" width="111" height="20" as="geometry" />
        </mxCell>
        <mxCell id="IJRxwQ_sMtEVjIKPLX23-20" value="HCM" style="text;strokeColor=none;fillColor=none;html=1;align=center;verticalAlign=middle;whiteSpace=wrap;rounded=0;fontSize=16;" vertex="1" parent="1">
          <mxGeometry x="858.5" y="489" width="176" height="30" as="geometry" />
        </mxCell>
        <mxCell id="IJRxwQ_sMtEVjIKPLX23-21" value="" style="rounded=1;whiteSpace=wrap;html=1;strokeColor=#0070F2;fillColor=#EBF8FF;arcSize=24;absoluteArcSize=1;imageWidth=64;imageHeight=64;strokeWidth=1.5;" vertex="1" parent="1">
          <mxGeometry x="1040.5" y="886" width="160" height="160" as="geometry" />
        </mxCell>
        <mxCell id="IJRxwQ_sMtEVjIKPLX23-22" value="TEST" style="rounded=1;whiteSpace=wrap;html=1;strokeColor=#0070F2;strokeWidth=1.5;arcSize=16;fillColor=#ffffff;perimeterSpacing=0;absoluteArcSize=1;" vertex="1" parent="1">
          <mxGeometry x="1061.5" y="955.9999999999998" width="111" height="20" as="geometry" />
        </mxCell>
        <mxCell id="IJRxwQ_sMtEVjIKPLX23-23" value="Cloud Integration Services" style="text;strokeColor=none;fillColor=none;html=1;align=center;verticalAlign=middle;whiteSpace=wrap;rounded=0;fontSize=16;" vertex="1" parent="1">
          <mxGeometry x="1034.5" y="895" width="176" height="30" as="geometry" />
        </mxCell>
        <mxCell id="IJRxwQ_sMtEVjIKPLX23-24" value="PROD" style="rounded=1;whiteSpace=wrap;html=1;strokeColor=#0070F2;strokeWidth=1.5;arcSize=16;fillColor=#ffffff;perimeterSpacing=0;absoluteArcSize=1;" vertex="1" parent="1">
          <mxGeometry x="1061.5" y="990.9999999999998" width="111" height="20" as="geometry" />
        </mxCell>
        <mxCell id="IJRxwQ_sMtEVjIKPLX23-25" value="" style="rounded=1;whiteSpace=wrap;html=1;strokeColor=#0070F2;fillColor=#EBF8FF;arcSize=24;absoluteArcSize=1;imageWidth=64;imageHeight=64;strokeWidth=1.5;" vertex="1" parent="1">
          <mxGeometry x="456" y="1129" width="160" height="160" as="geometry" />
        </mxCell>
        <mxCell id="IJRxwQ_sMtEVjIKPLX23-26" value="STG" style="rounded=1;whiteSpace=wrap;html=1;strokeColor=#0070F2;strokeWidth=1.5;arcSize=16;fillColor=#ffffff;perimeterSpacing=0;absoluteArcSize=1;" vertex="1" parent="1">
          <mxGeometry x="478" y="1185.9999999999998" width="111" height="20" as="geometry" />
        </mxCell>
        <mxCell id="IJRxwQ_sMtEVjIKPLX23-27" value="SuccessFactors" style="text;strokeColor=none;fillColor=none;html=1;align=center;verticalAlign=middle;whiteSpace=wrap;rounded=0;fontSize=16;" vertex="1" parent="1">
          <mxGeometry x="450" y="1138" width="176" height="30" as="geometry" />
        </mxCell>
        <mxCell id="IJRxwQ_sMtEVjIKPLX23-28" value="TEST" style="rounded=1;whiteSpace=wrap;html=1;strokeColor=#0070F2;strokeWidth=1.5;arcSize=16;fillColor=#ffffff;perimeterSpacing=0;absoluteArcSize=1;" vertex="1" parent="1">
          <mxGeometry x="478" y="1217.9999999999998" width="111" height="20" as="geometry" />
        </mxCell>
        <mxCell id="IJRxwQ_sMtEVjIKPLX23-29" value="PROD" style="rounded=1;whiteSpace=wrap;html=1;strokeColor=#0070F2;strokeWidth=1.5;arcSize=16;fillColor=#ffffff;perimeterSpacing=0;absoluteArcSize=1;" vertex="1" parent="1">
          <mxGeometry x="478" y="1249.9999999999998" width="111" height="20" as="geometry" />
        </mxCell>
        <mxCell id="IJRxwQ_sMtEVjIKPLX23-30" value="" style="rounded=1;whiteSpace=wrap;html=1;strokeColor=#0070F2;fillColor=#EBF8FF;arcSize=24;absoluteArcSize=1;imageWidth=64;imageHeight=64;strokeWidth=1.5;" vertex="1" parent="1">
          <mxGeometry x="748" y="1129" width="160" height="160" as="geometry" />
        </mxCell>
        <mxCell id="IJRxwQ_sMtEVjIKPLX23-31" value="SAP Analytics Cloud" style="text;strokeColor=none;fillColor=none;html=1;align=center;verticalAlign=middle;whiteSpace=wrap;rounded=0;fontSize=16;" vertex="1" parent="1">
          <mxGeometry x="742" y="1138" width="176" height="30" as="geometry" />
        </mxCell>
        <mxCell id="IJRxwQ_sMtEVjIKPLX23-32" value="TEST" style="rounded=1;whiteSpace=wrap;html=1;strokeColor=#0070F2;strokeWidth=1.5;arcSize=16;fillColor=#ffffff;perimeterSpacing=0;absoluteArcSize=1;" vertex="1" parent="1">
          <mxGeometry x="770" y="1197.9999999999998" width="111" height="20" as="geometry" />
        </mxCell>
        <mxCell id="IJRxwQ_sMtEVjIKPLX23-33" value="PROD" style="rounded=1;whiteSpace=wrap;html=1;strokeColor=#0070F2;strokeWidth=1.5;arcSize=16;fillColor=#ffffff;perimeterSpacing=0;absoluteArcSize=1;" vertex="1" parent="1">
          <mxGeometry x="770" y="1229.9999999999998" width="111" height="20" as="geometry" />
        </mxCell>
        <mxCell id="IJRxwQ_sMtEVjIKPLX23-34" value="" style="rounded=1;whiteSpace=wrap;html=1;strokeColor=#0070F2;fillColor=#EBF8FF;arcSize=24;absoluteArcSize=1;imageWidth=64;imageHeight=64;strokeWidth=1.5;" vertex="1" parent="1">
          <mxGeometry x="1040" y="1128" width="160" height="160" as="geometry" />
        </mxCell>
        <mxCell id="IJRxwQ_sMtEVjIKPLX23-35" value="SAP Ariba&lt;div&gt;Strategic Sourcing&lt;/div&gt;" style="text;strokeColor=none;fillColor=none;html=1;align=center;verticalAlign=middle;whiteSpace=wrap;rounded=0;fontSize=16;" vertex="1" parent="1">
          <mxGeometry x="1034" y="1137" width="176" height="30" as="geometry" />
        </mxCell>
        <mxCell id="IJRxwQ_sMtEVjIKPLX23-36" value="TEST" style="rounded=1;whiteSpace=wrap;html=1;strokeColor=#0070F2;strokeWidth=1.5;arcSize=16;fillColor=#ffffff;perimeterSpacing=0;absoluteArcSize=1;" vertex="1" parent="1">
          <mxGeometry x="1062" y="1196.9999999999998" width="111" height="20" as="geometry" />
        </mxCell>
        <mxCell id="IJRxwQ_sMtEVjIKPLX23-37" value="PROD" style="rounded=1;whiteSpace=wrap;html=1;strokeColor=#0070F2;strokeWidth=1.5;arcSize=16;fillColor=#ffffff;perimeterSpacing=0;absoluteArcSize=1;" vertex="1" parent="1">
          <mxGeometry x="1062" y="1228.9999999999998" width="111" height="20" as="geometry" />
        </mxCell>
        <mxCell id="IJRxwQ_sMtEVjIKPLX23-38" value="" style="rounded=1;whiteSpace=wrap;html=1;strokeColor=#0070F2;fillColor=#EBF8FF;arcSize=24;absoluteArcSize=1;imageWidth=64;imageHeight=64;strokeWidth=1.5;" vertex="1" parent="1">
          <mxGeometry x="1327" y="1127" width="160" height="160" as="geometry" />
        </mxCell>
        <mxCell id="IJRxwQ_sMtEVjIKPLX23-39" value="SAP Concur" style="text;strokeColor=none;fillColor=none;html=1;align=center;verticalAlign=middle;whiteSpace=wrap;rounded=0;fontSize=16;" vertex="1" parent="1">
          <mxGeometry x="1321" y="1136" width="176" height="30" as="geometry" />
        </mxCell>
        <mxCell id="IJRxwQ_sMtEVjIKPLX23-40" value="PROD" style="rounded=1;whiteSpace=wrap;html=1;strokeColor=#0070F2;strokeWidth=1.5;arcSize=16;fillColor=#ffffff;perimeterSpacing=0;absoluteArcSize=1;" vertex="1" parent="1">
          <mxGeometry x="1349" y="1195.9999999999998" width="111" height="20" as="geometry" />
        </mxCell>
        <mxCell id="IJRxwQ_sMtEVjIKPLX23-41" value="" style="endArrow=none;html=1;strokeColor=#475e75;bendable=1;rounded=0;endFill=0;endSize=4;strokeWidth=1.5;startSize=4;startArrow=block;startFill=1;fontSize=16;sourcePerimeterSpacing=8;targetPerimeterSpacing=8;exitX=0.5;exitY=0;exitDx=0;exitDy=0;edgeStyle=orthogonalEdgeStyle;entryX=0;entryY=0.5;entryDx=0;entryDy=0;" edge="1" parent="1" source="IJRxwQ_sMtEVjIKPLX23-30" target="IJRxwQ_sMtEVjIKPLX23-21">
          <mxGeometry width="50" height="50" relative="1" as="geometry">
            <mxPoint x="1177.5" y="791" as="sourcePoint" />
            <mxPoint x="1297.5" y="791" as="targetPoint" />
          </mxGeometry>
        </mxCell>
        <mxCell id="IJRxwQ_sMtEVjIKPLX23-42" value="Create/update/delete" style="edgeLabel;html=1;align=center;verticalAlign=middle;resizable=0;points=[];fontSize=16;" vertex="1" connectable="0" parent="IJRxwQ_sMtEVjIKPLX23-41">
          <mxGeometry x="0.3237" relative="1" as="geometry">
            <mxPoint as="offset" />
          </mxGeometry>
        </mxCell>
        <mxCell id="IJRxwQ_sMtEVjIKPLX23-43" value="" style="endArrow=none;html=1;strokeColor=#475e75;bendable=1;rounded=0;endFill=0;endSize=4;strokeWidth=1.5;startSize=4;startArrow=block;startFill=1;fontSize=16;sourcePerimeterSpacing=8;targetPerimeterSpacing=8;exitX=0.5;exitY=0;exitDx=0;exitDy=0;edgeStyle=orthogonalEdgeStyle;entryX=0.5;entryY=1;entryDx=0;entryDy=0;" edge="1" parent="1" source="IJRxwQ_sMtEVjIKPLX23-34" target="IJRxwQ_sMtEVjIKPLX23-21">
          <mxGeometry width="50" height="50" relative="1" as="geometry">
            <mxPoint x="838.5" y="1139" as="sourcePoint" />
            <mxPoint x="1050.5" y="976" as="targetPoint" />
          </mxGeometry>
        </mxCell>
        <mxCell id="IJRxwQ_sMtEVjIKPLX23-44" value="Create/update/delete" style="edgeLabel;html=1;align=center;verticalAlign=middle;resizable=0;points=[];fontSize=16;" vertex="1" connectable="0" parent="IJRxwQ_sMtEVjIKPLX23-43">
          <mxGeometry x="0.2768" y="-2" relative="1" as="geometry">
            <mxPoint as="offset" />
          </mxGeometry>
        </mxCell>
        <mxCell id="IJRxwQ_sMtEVjIKPLX23-45" value="" style="endArrow=none;html=1;strokeColor=#475e75;bendable=1;rounded=0;endFill=0;endSize=4;strokeWidth=1.5;startSize=4;startArrow=classic;startFill=1;fontSize=16;sourcePerimeterSpacing=8;targetPerimeterSpacing=8;exitX=0.5;exitY=0;exitDx=0;exitDy=0;edgeStyle=orthogonalEdgeStyle;entryX=1;entryY=0.5;entryDx=0;entryDy=0;" edge="1" parent="1" source="IJRxwQ_sMtEVjIKPLX23-38" target="IJRxwQ_sMtEVjIKPLX23-21">
          <mxGeometry width="50" height="50" relative="1" as="geometry">
            <mxPoint x="848.5" y="1149" as="sourcePoint" />
            <mxPoint x="1060.5" y="986" as="targetPoint" />
          </mxGeometry>
        </mxCell>
        <mxCell id="IJRxwQ_sMtEVjIKPLX23-46" value="Create/update/delete" style="edgeLabel;html=1;align=center;verticalAlign=middle;resizable=0;points=[];fontSize=16;" vertex="1" connectable="0" parent="IJRxwQ_sMtEVjIKPLX23-45">
          <mxGeometry x="0.4551" y="1" relative="1" as="geometry">
            <mxPoint as="offset" />
          </mxGeometry>
        </mxCell>
        <mxCell id="IJRxwQ_sMtEVjIKPLX23-47" style="edgeStyle=orthogonalEdgeStyle;rounded=0;orthogonalLoop=1;jettySize=auto;html=1;fontSize=18;strokeColor=#d20a0a;fontFamily=Helvetica;fontColor=default;targetPerimeterSpacing=15;endSize=4;startSize=4;endArrow=blockThin;endFill=1;strokeWidth=1.5;startArrow=none;startFill=0;exitX=0.5;exitY=0;exitDx=0;exitDy=0;entryX=0;entryY=0.25;entryDx=0;entryDy=0;" edge="1" parent="1" source="IJRxwQ_sMtEVjIKPLX23-25" target="IJRxwQ_sMtEVjIKPLX23-21">
          <mxGeometry relative="1" as="geometry">
            <mxPoint x="1297.5" y="801" as="targetPoint" />
            <mxPoint x="1177.5" y="781" as="sourcePoint" />
          </mxGeometry>
        </mxCell>
        <mxCell id="IJRxwQ_sMtEVjIKPLX23-48" value="Updates user base in IAS" style="edgeLabel;html=1;align=center;verticalAlign=middle;resizable=0;points=[];fontSize=16;" vertex="1" connectable="0" parent="IJRxwQ_sMtEVjIKPLX23-47">
          <mxGeometry x="0.1886" relative="1" as="geometry">
            <mxPoint as="offset" />
          </mxGeometry>
        </mxCell>
        <mxCell id="IJRxwQ_sMtEVjIKPLX23-49" value="" style="endArrow=none;html=1;strokeColor=#475e75;bendable=1;rounded=0;endFill=0;endSize=4;strokeWidth=1.5;startSize=4;startArrow=classic;startFill=1;fontSize=16;sourcePerimeterSpacing=8;targetPerimeterSpacing=8;exitX=0.5;exitY=1;exitDx=0;exitDy=0;edgeStyle=orthogonalEdgeStyle;entryX=0.5;entryY=0;entryDx=0;entryDy=0;" edge="1" parent="1" source="IJRxwQ_sMtEVjIKPLX23-9" target="IJRxwQ_sMtEVjIKPLX23-21">
          <mxGeometry width="50" height="50" relative="1" as="geometry">
            <mxPoint x="1417.5" y="1137" as="sourcePoint" />
            <mxPoint x="1210.5" y="976" as="targetPoint" />
          </mxGeometry>
        </mxCell>
        <mxCell id="IJRxwQ_sMtEVjIKPLX23-50" value="Create/update/delete" style="edgeLabel;html=1;align=center;verticalAlign=middle;resizable=0;points=[];fontSize=16;" vertex="1" connectable="0" parent="IJRxwQ_sMtEVjIKPLX23-49">
          <mxGeometry x="0.4551" y="1" relative="1" as="geometry">
            <mxPoint as="offset" />
          </mxGeometry>
        </mxCell>
      </root>
    </mxGraphModel>
  </diagram>
</mxfile>
